<?xml version="1.0" encoding="UTF-8"?>
<svg width="80px" height="63px" viewBox="0 0 80 63" version="1.1" xmlns="http://www.w3.org/2000/svg" xmlns:xlink="http://www.w3.org/1999/xlink">
    <!-- Generator: Sketch 49.3 (51167) - http://www.bohemiancoding.com/sketch -->
    <title>LOGO</title>
    <desc>Created with Sketch.</desc>
    <defs></defs>
    <g id="Page-1" stroke="none" stroke-width="1" fill="none" fill-rule="evenodd">
        <g id="Extra-large:-Desktops---12-col" transform="translate(-680.000000, -83.000000)">
            <g id="LOGO" transform="translate(680.000000, 83.000000)">
                <path d="M56.5270588,43.3517647 C54.2917647,42.3172549 51.2792157,41.6709804 47.9317647,41.2701961 L47.9309804,41.2701961 L54.0329412,27.567451 L62.827451,47.3196078 C60.8941176,45.7376471 58.7796078,44.3941176 56.5270588,43.3517647 Z M44.5568627,40.9494118 C39.6007843,40.5886275 34.2658824,40.6192157 29.7827451,40.6466667 C29.6627451,40.647451 29.1984314,40.6482353 28.6062745,40.6498039 L44.2321569,5.55568627 L52.2745098,23.6168627 L44.5568627,40.9494118 Z M77.6462745,59.5329412 L71.9035294,59.5329412 L71.7835294,59.5329412 L70.3788235,56.3776471 L55.7921569,23.6168627 L54.0329412,19.6678431 L45.6996078,0.95254902 C45.6862745,0.920392157 45.665098,0.894509804 45.6494118,0.863921569 C45.6227451,0.812156863 45.5952941,0.760392157 45.5631373,0.71254902 C45.534902,0.670980392 45.5027451,0.63254902 45.4713725,0.594117647 C45.4368627,0.551764706 45.4023529,0.509411765 45.3654902,0.47254902 C45.3286275,0.434901961 45.2870588,0.401960784 45.2462745,0.368235294 C45.2062745,0.336078431 45.1670588,0.303137255 45.1247059,0.274901961 C45.0776471,0.243529412 45.0266667,0.216078431 44.974902,0.189411765 C44.9443137,0.17372549 44.9176471,0.15254902 44.8854902,0.137647059 C44.8729412,0.132156863 44.8596078,0.130588235 44.8462745,0.125098039 C44.7921569,0.102352941 44.7372549,0.0866666667 44.6815686,0.0709803922 C44.6360784,0.0576470588 44.5898039,0.0419607843 44.5427451,0.0325490196 C44.4894118,0.0215686275 44.4368627,0.0184313725 44.3843137,0.0137254902 C44.3333333,0.00823529412 44.2839216,0.00196078431 44.2329412,0.00196078431 C44.1811765,0.00196078431 44.1294118,0.00901960784 44.0776471,0.0137254902 C44.0266667,0.0184313725 43.9741176,0.0215686275 43.9231373,0.0325490196 C43.8745098,0.0419607843 43.8282353,0.0576470588 43.7803922,0.0717647059 C43.7262745,0.0874509804 43.6721569,0.103137255 43.6188235,0.125098039 C43.6054902,0.130588235 43.5921569,0.132156863 43.5788235,0.137647059 C43.5458824,0.15254902 43.5192157,0.17372549 43.4878431,0.190196078 C43.4376471,0.216862745 43.3866667,0.243529412 43.3411765,0.274117647 C43.2980392,0.303137255 43.2580392,0.336078431 43.2180392,0.368235294 C43.1772549,0.401960784 43.1364706,0.434901961 43.0996078,0.471764706 C43.0619608,0.509411765 43.027451,0.551764706 42.9929412,0.593333333 C42.9615686,0.63254902 42.9294118,0.670980392 42.9019608,0.71254902 C42.8698039,0.760392157 42.8423529,0.812156863 42.8156863,0.863921569 C42.7992157,0.894509804 42.7788235,0.920392157 42.7647059,0.95254902 L27.427451,35.3972549 L13.7858824,35.3972549 C12.8823529,35.3972549 12.1505882,36.1164706 12.1505882,37.0035294 C12.1505882,37.8913725 12.8823529,38.6105882 13.7858824,38.6105882 L25.9968627,38.6105882 L25.0854902,40.6568627 L1.70823529,40.6568627 C0.821960784,40.6568627 0.102745098,41.3760784 0.102745098,42.2639216 C0.102745098,43.1509804 0.821960784,43.8701961 1.70823529,43.8701961 L23.654902,43.8701961 L22.8501961,45.6780392 L22.6117647,46.2129412 L11.1662745,46.2129412 C10.2792157,46.2129412 9.56,46.9329412 9.56,47.82 C9.56,48.7070588 10.2792157,49.4262745 11.1662745,49.4262745 L21.1819608,49.4262745 L16.6807843,59.5329412 L10.8188235,59.5329412 C9.93098039,59.5329412 9.21176471,60.2521569 9.21176471,61.14 C9.21176471,62.0270588 9.93098039,62.7462745 10.8188235,62.7462745 L17.7192157,62.7462745 C17.72,62.7462745 17.7215686,62.7470588 17.7231373,62.7470588 C17.7262745,62.7470588 17.7286275,62.7462745 17.7309804,62.7462745 L24.6305882,62.7462745 C25.5184314,62.7462745 26.2376471,62.0270588 26.2376471,61.14 C26.2376471,60.2521569 25.5184314,59.5329412 24.6305882,59.5329412 L20.1984314,59.5329412 L27.1717647,43.8709804 C27.9882353,43.8694118 28.867451,43.8647059 29.8031373,43.8592157 C33.6964706,43.834902 38.5662745,43.8066667 43.1623529,44.0827451 L43.1639216,44.0827451 L36.2823529,59.5329412 L30.4203922,59.5329412 C29.532549,59.5329412 28.8133333,60.2521569 28.8133333,61.14 C28.8133333,62.0270588 29.532549,62.7462745 30.4203922,62.7462745 L37.3207843,62.7462745 C37.3223529,62.7462745 37.3239216,62.7470588 37.3254902,62.7470588 C37.3278431,62.7470588 37.3301961,62.7462745 37.332549,62.7462745 L44.2321569,62.7462745 C45.1192157,62.7462745 45.8384314,62.0270588 45.8384314,61.14 C45.8384314,60.2521569 45.1192157,59.5329412 44.2321569,59.5329412 L39.8,59.5329412 L46.5639216,44.3541176 C49.9992157,44.7070588 53.0729412,45.2937255 55.1772549,46.2678431 C60.3160784,48.6458824 64.667451,52.7556863 67.4917647,57.7941176 L68.2658824,59.5329412 L63.8337255,59.5329412 C62.9466667,59.5329412 62.227451,60.2521569 62.227451,61.14 C62.227451,62.0270588 62.9466667,62.7462745 63.8337255,62.7462745 L70.7333333,62.7462745 C70.7356863,62.7462745 70.7380392,62.7470588 70.7403922,62.7470588 C70.7427451,62.7470588 70.7443137,62.7462745 70.7458824,62.7462745 L77.6462745,62.7462745 C78.5341176,62.7462745 79.2533333,62.0270588 79.2533333,61.14 C79.2533333,60.2521569 78.5341176,59.5329412 77.6462745,59.5329412 Z" id="Fill-1" fill="#0A0B09"></path>
                <path d="M28.814902,61.1396863 C28.814902,60.2518431 29.5341176,59.5326275 30.4211765,59.5326275 L36.2839216,59.5326275 L43.1654902,44.0824314 L43.1639216,44.0824314 C38.5678431,43.8063529 33.6980392,43.8353725 29.8039216,43.8596863 C28.8690196,43.8651765 27.9898039,43.869098 27.1733333,43.8706667 L20.2,59.5326275 L24.6321569,59.5326275 C24.9207843,59.5326275 25.1905882,59.6102745 25.425098,59.7436078 C25.4478431,59.7506667 25.4643137,59.7600784 25.4721569,59.7726275 C25.9317647,60.0549804 26.2384314,60.5608627 26.2384314,61.1396863 C26.2384314,62.0267451 25.5192157,62.7459608 24.6321569,62.7459608 L30.2823529,62.7467451 C30.2776471,62.7443922 30.2737255,62.7412549 30.2690196,62.7381176 C29.4533333,62.6612549 28.814902,61.9749804 28.814902,61.1396863" id="Fill-3" fill="#D5232A"></path>
                <path d="M44.2323922,5.57678431 L28.6065098,40.670902 C29.1986667,40.6693333 29.6629804,40.6677647 29.7829804,40.6669804 C34.2661176,40.6403137 39.6010196,40.6097255 44.557098,40.9705098 L52.2747451,23.6387451 L44.2323922,5.57678431 Z" id="Fill-5" fill="#224072"></path>
            </g>
        </g>
    </g>
</svg>