<?xml version="1.0" encoding="UTF-8"?>
<svg width="40px" height="45px" viewBox="0 0 40 45" version="1.1" xmlns="http://www.w3.org/2000/svg" xmlns:xlink="http://www.w3.org/1999/xlink">
    <!-- Generator: Sketch 49.3 (51167) - http://www.bohemiancoding.com/sketch -->
    <title>euro-icon</title>
    <desc>Created with Sketch.</desc>
    <defs></defs>
    <g id="euro-icon" stroke="none" stroke-width="1" fill="none" fill-rule="evenodd">
        <path d="M30.82,30.0266667 C30.575,29.22 30.2383333,28.4433333 29.8166667,27.71 L34.5833333,25.6466667 C34.975,26.3883333 35.3116667,27.1666667 35.5866667,27.9633333 L30.82,30.0266667 Z M27.055,24.4933333 L30.7283333,20.8216667 C31.365,21.3683333 31.965,21.9683333 32.5133333,22.6066667 L28.8416667,26.2783333 C28.3133333,25.6183333 27.715,25.02 27.055,24.4933333 Z M23.14,22.465 L25.1283333,17.6666667 C25.9266667,17.9266667 26.7083333,18.2516667 27.4616667,18.6333333 L25.4716667,23.4316667 C24.7333333,23.0216667 23.95,22.6983333 23.14,22.465 Z M14.8266667,41.6666667 C14.8566667,39.7483333 15.9233333,38.0833333 17.4966667,37.2133333 L20,25.4783333 L22.5033333,37.2133333 C24.075,38.0833333 25.1433333,39.7483333 25.1733333,41.6666667 L14.8266667,41.6666667 Z M12.48,18.6633333 C13.2283333,18.2783333 14.0116667,17.9516667 14.8083333,17.6866667 L16.8166667,22.4766667 C16.0066667,22.7133333 15.2266667,23.0416667 14.4883333,23.4533333 L12.48,18.6633333 Z M11.1583333,26.2783333 L7.48666667,22.6066667 C8.035,21.9683333 8.635,21.3683333 9.27166667,20.8216667 L12.945,24.4933333 C12.285,25.02 11.6866667,25.6183333 11.1583333,26.2783333 Z M9.13166667,30.1966667 L4.33166667,28.2083333 C4.59333333,27.41 4.91666667,26.6283333 5.3,25.8766667 L10.0983333,27.8633333 C9.68666667,28.6033333 9.36333333,29.385 9.13166667,30.1966667 Z M18.7366667,16.9 C19.1633333,16.8683333 19.5866667,16.8516667 20,16.8516667 C20.4133333,16.8516667 20.8366667,16.8683333 21.2633333,16.9 L21.2633333,22.0916667 C20.8433333,22.0466667 20.42,22.0216667 20,22.0216667 C19.58,22.0216667 19.1566667,22.0466667 18.7366667,22.0916667 L18.7366667,16.9 Z M20,13.3333333 C8.955,13.3333333 0,22.2883333 0,33.3333333 C0,37.6383333 1.36,41.7366667 3.675,45 L36.325,45 C38.64,41.7366667 40,37.6383333 40,33.3333333 C40,22.2883333 31.045,13.3333333 20,13.3333333 Z" id="iconmonstr-dashboard-5" fill="#0A0B09"></path>
    </g>
</svg>