<?xml version="1.0" encoding="UTF-8"?>
<svg width="15px" height="15px" viewBox="0 0 15 15" version="1.1" xmlns="http://www.w3.org/2000/svg" xmlns:xlink="http://www.w3.org/1999/xlink">
    <!-- Generator: Sketch 49.3 (51167) - http://www.bohemiancoding.com/sketch -->
    <title>Facebook-white</title>
    <desc>Created with Sketch.</desc>
    <defs></defs>
    <g id="Facebook-white" stroke="none" stroke-width="1" fill="none" fill-rule="evenodd">
        <path d="M10,4.375 C10,4.375 9.108125,4.375 8.798125,4.375 C8.413125,4.375 8.125,4.5325 8.125,4.930625 C8.125,5.261875 8.125,5.625 8.125,5.625 L10,5.625 L9.850625,7.5 L8.125,7.5 L8.125,12.5 L6.25,12.5 L6.25,7.5 L5,7.5 L5,5.625 L6.25,5.625 C6.25,5.625 6.25,5.523125 6.25,4.423125 C6.25,3.159375 6.915,2.5 8.413125,2.5 C8.658125,2.5 10,2.5 10,2.5 L10,4.375 Z M0,15 L15,15 L15,0 L0,0 L0,15 Z" id="Fill-1" fill="#FFFFFF"></path>
    </g>
</svg>