<?xml version="1.0" encoding="UTF-8"?>
<svg width="45px" height="45px" viewBox="0 0 45 45" version="1.1" xmlns="http://www.w3.org/2000/svg" xmlns:xlink="http://www.w3.org/1999/xlink">
    <!-- Generator: Sketch 49.3 (51167) - http://www.bohemiancoding.com/sketch -->
    <title>heritage-icon</title>
    <desc>Created with Sketch.</desc>
    <defs>
        <polygon id="path-1" points="0 0 45 0 45 44.8875 0 44.8875"></polygon>
    </defs>
    <g id="heritage-icon" stroke="none" stroke-width="1" fill="none" fill-rule="evenodd">
        <g id="iconmonstr-wrench-24">
            <mask id="mask-2" fill="white">
                <use xlink:href="#path-1"></use>
            </mask>
            <g id="Clip-2"></g>
            <path d="M21.088125,29.754375 C23.82,29.7525 24.234375,25.884375 21.65625,25.425 C11.960625,23.70375 12.46875,23.758125 12.15,23.758125 C10.96125,23.758125 9.928125,24.6075 9.6975,25.779375 L8.86125,33.178125 C8.746875,34.36125 9.13125,35.385 10.04625,36.0525 C10.96125,36.714375 13.846875,38.769375 13.846875,38.769375 C13.846875,38.769375 14.461875,33.451875 14.634375,31.921875 C14.806875,30.39375 15.665625,29.338125 17.304375,29.41875 C17.476875,29.42625 20.79,29.754375 21.088125,29.754375 Z M24.129375,32.925 C22.87875,31.636875 20.94,31.54125 17.409375,31.306875 C16.873125,31.27125 16.543125,31.614375 16.5,32.1375 C16.48875,32.25375 15.64125,40.0275 15.64125,40.0275 C15.64125,40.0275 20.88,43.565625 23.02875,45 C25.025625,41.398125 28.089375,41.1825 30.380625,39.37125 L24.129375,32.925 Z M42.1875,40.3125 C42.1875,39.2775 41.3475,38.4375 40.310625,38.4375 C39.275625,38.4375 38.435625,39.2775 38.435625,40.3125 C38.435625,41.3475 39.275625,42.1875 40.310625,42.1875 C41.3475,42.1875 42.1875,41.3475 42.1875,40.3125 Z M40.528125,45 C39.38625,45 38.2425,44.565 37.36875,43.69125 L24.200625,30.294375 C26.240625,28.040625 25.250625,24.14625 21.98625,23.566875 L16.220625,22.543125 L14.23875,20.559375 C13.111875,19.43625 11.563125,18.841875 9.975,18.92625 C7.38375,19.065 4.749375,18.14625 2.773125,16.168125 C0.9225,14.3175 0,11.895 0,9.470625 C0,8.420625 0.1725,7.370625 0.519375,6.3675 L6.545625,12.39375 C8.895,12.5325 12.5325,8.896875 12.391875,6.5475 L6.3675,0.519375 C7.370625,0.1725 8.41875,0 9.46875,0 C11.893125,0 14.3175,0.924375 16.16625,2.773125 C18.144375,4.75125 19.063125,7.385625 18.92625,9.976875 C18.841875,11.563125 19.434375,13.115625 20.559375,14.23875 L20.61,14.29125 C18.279375,18.196875 21.421875,20.870625 23.99625,20.773125 C23.533125,22.985625 25.90125,25.291875 27.935625,25.291875 C27.433125,27.24 28.9425,29.27625 31.29,29.7375 C30.345,33.15375 35.52375,36.800625 38.52375,32.205 L43.69125,37.370625 C44.565,38.240625 45,39.38625 45,40.53 C45,42.9975 43.00125,45 40.528125,45 Z M29.90625,24.465 C29.251875,25.4475 29.51625,26.773125 30.49875,27.4275 C31.48125,28.081875 32.806875,27.815625 33.46125,26.835 L35.92125,23.145 C36.5775,22.1625 36.31125,20.836875 35.32875,20.1825 C34.34625,19.528125 33.020625,19.7925 32.368125,20.775 L29.90625,24.465 Z M35.664375,26.04 L33.39375,29.446875 C32.788125,30.3525 33.03375,31.576875 33.94125,32.180625 C34.846875,32.784375 36.069375,32.53875 36.675,31.635 L38.945625,28.228125 C39.55125,27.320625 39.305625,26.09625 38.398125,25.4925 C37.4925,24.886875 36.268125,25.1325 35.664375,26.04 Z M22.52625,18.635625 C23.510625,19.29375 24.84375,19.0275 25.501875,18.04125 L28.093125,14.1525 C28.753125,13.16625 28.485,11.833125 27.49875,11.175 C26.514375,10.516875 25.18125,10.783125 24.523125,11.77125 L21.93,15.66 C21.271875,16.64625 21.538125,17.979375 22.52625,18.635625 Z M26.05125,19.918125 L28.621875,16.066875 C29.27625,15.0825 30.6075,14.81625 31.59375,15.4725 C32.57625,16.12875 32.844375,17.46 32.18625,18.444375 L29.619375,22.295625 C28.963125,23.28 27.631875,23.54625 26.6475,22.89 C25.663125,22.23375 25.396875,20.9025 26.05125,19.918125 Z" id="Fill-1" fill="#0A0B09" mask="url(#mask-2)"></path>
        </g>
    </g>
</svg>